<svg xmlns="http://www.w3.org/2000/svg" viewBox="345 0 950 1051"><defs><clipPath id="a"><path d="M1155 268h56v83h-56Zm0 0"/></clipPath><clipPath id="b"><path d="m1186.6 270.4-12.29 12.04-8.02 8.17c-7.75 9.12-11.65 20.59-10.24 32.69-1.25 7.86 2.1 14.57 7.94 19.84 4.94 4.1 11.07 6.1 17.56 7.49 8.76-1.32 17.02-5.33 22.48-11.75-.53-.24-.86-.41-.87-.64-.05-.6 5.85-9.53 6.98-23.36.24-2.88.5-5.82-.04-9.29l-7.56 11.48c-2.72 4.14-6.9 7.06-11.4 9.91 2.46-8.2 5.49-15.53 5.68-23.88.12-5.88.73-11.36-.46-17.52-5.37 6.94-11 12.01-17.36 17.02-4.8 3.78-7.6 8.9-11.84 13.92-.1-5.74.23-11.2-.92-16.88-.67.04-1.06.41-1.3.68l-6.68 10.71c1.27-8.48 5.49-15.66 11.33-21.46l6.18-6.12 8.7-8.75a2.8 2.8 0 0 1 2.2-2.31c.97-1.02 2.59-1.98 2.6-3.7-.84.53-1.7.76-2.68 1.71"/></clipPath><linearGradient id="c" x1="-.44" x2="1.21" y1="0" y2="0" gradientTransform="rotate(123.4 520.93 469.19)scale(60.05363)" gradientUnits="userSpaceOnUse"><stop offset="0" stop-color="#A13D06"/><stop offset=".25" stop-color="#A13D06"/><stop offset=".27" stop-color="#A13D06"/><stop offset=".27" stop-color="#A13D07"/><stop offset=".27" stop-color="#A23E07"/><stop offset=".28" stop-color="#A23E08"/><stop offset=".28" stop-color="#A33F08"/><stop offset=".29" stop-color="#A33F09"/><stop offset=".29" stop-color="#A33F09"/><stop offset=".29" stop-color="#A4400A"/><stop offset=".3" stop-color="#A4400A"/><stop offset=".3" stop-color="#A4410B"/><stop offset=".3" stop-color="#A5410B"/><stop offset=".31" stop-color="#A5410C"/><stop offset=".31" stop-color="#A6420C"/><stop offset=".32" stop-color="#A6420D"/><stop offset=".32" stop-color="#A6430E"/><stop offset=".32" stop-color="#A7430E"/><stop offset=".33" stop-color="#A7430F"/><stop offset=".33" stop-color="#A7440F"/><stop offset=".34" stop-color="#A84410"/><stop offset=".34" stop-color="#A84510"/><stop offset=".34" stop-color="#A94511"/><stop offset=".35" stop-color="#A94511"/><stop offset=".35" stop-color="#A94612"/><stop offset=".36" stop-color="#AA4612"/><stop offset=".36" stop-color="#AA4713"/><stop offset=".36" stop-color="#AA4713"/><stop offset=".37" stop-color="#AB4714"/><stop offset=".37" stop-color="#AB4814"/><stop offset=".38" stop-color="#AC4815"/><stop offset=".38" stop-color="#AC4916"/><stop offset=".38" stop-color="#AC4916"/><stop offset=".39" stop-color="#AD4917"/><stop offset=".39" stop-color="#AD4A17"/><stop offset=".39" stop-color="#AD4A18"/><stop offset=".4" stop-color="#AE4B18"/><stop offset=".4" stop-color="#AE4B19"/><stop offset=".41" stop-color="#AF4B19"/><stop offset=".41" stop-color="#AF4C1A"/><stop offset=".41" stop-color="#AF4C1A"/><stop offset=".42" stop-color="#B04C1B"/><stop offset=".42" stop-color="#B04D1B"/><stop offset=".43" stop-color="#B04D1C"/><stop offset=".43" stop-color="#B14E1D"/><stop offset=".43" stop-color="#B14E1D"/><stop offset=".44" stop-color="#B24E1E"/><stop offset=".44" stop-color="#B24F1E"/><stop offset=".45" stop-color="#B24F1F"/><stop offset=".45" stop-color="#B3501F"/><stop offset=".45" stop-color="#B35020"/><stop offset=".46" stop-color="#B35020"/><stop offset=".46" stop-color="#B45121"/><stop offset=".46" stop-color="#B35121"/><stop offset=".47" stop-color="#B35121"/><stop offset=".47" stop-color="#B25021"/><stop offset=".48" stop-color="#B15021"/><stop offset=".48" stop-color="#B05021"/><stop offset=".48" stop-color="#B04F22"/><stop offset=".49" stop-color="#AF4F22"/><stop offset=".49" stop-color="#AE4F22"/><stop offset=".5" stop-color="#AD4F22"/><stop offset=".5" stop-color="#AD4E22"/><stop offset=".5" stop-color="#AC4E22"/><stop offset=".51" stop-color="#AB4E22"/><stop offset=".51" stop-color="#AA4E22"/><stop offset=".52" stop-color="#A94D22"/><stop offset=".52" stop-color="#A94D22"/><stop offset=".52" stop-color="#A84D22"/><stop offset=".53" stop-color="#A74D23"/><stop offset=".53" stop-color="#A64C23"/><stop offset=".54" stop-color="#A64C23"/><stop offset=".54" stop-color="#A54C23"/><stop offset=".54" stop-color="#A44B23"/><stop offset=".55" stop-color="#A34B23"/><stop offset=".55" stop-color="#A24B23"/><stop offset=".55" stop-color="#A24B23"/><stop offset=".56" stop-color="#A14A23"/><stop offset=".56" stop-color="#A04A23"/><stop offset=".57" stop-color="#9F4A24"/><stop offset=".57" stop-color="#9F4A24"/><stop offset=".57" stop-color="#9E4924"/><stop offset=".58" stop-color="#9D4924"/><stop offset=".58" stop-color="#9C4924"/><stop offset=".59" stop-color="#9B4824"/><stop offset=".59" stop-color="#9B4824"/><stop offset=".59" stop-color="#9A4824"/><stop offset=".6" stop-color="#994824"/><stop offset=".6" stop-color="#984724"/><stop offset=".61" stop-color="#984724"/><stop offset=".61" stop-color="#974725"/><stop offset=".61" stop-color="#964725"/><stop offset=".62" stop-color="#954625"/><stop offset=".62" stop-color="#944625"/><stop offset=".63" stop-color="#944625"/><stop offset=".63" stop-color="#934625"/><stop offset=".63" stop-color="#924525"/><stop offset=".64" stop-color="#914525"/><stop offset=".64" stop-color="#914525"/><stop offset=".64" stop-color="#904425"/><stop offset=".65" stop-color="#8F4426"/><stop offset=".65" stop-color="#8E4426"/><stop offset=".66" stop-color="#8D4426"/><stop offset=".66" stop-color="#8D4326"/><stop offset=".66" stop-color="#8C4326"/><stop offset=".67" stop-color="#8B4326"/><stop offset=".67" stop-color="#8A4326"/><stop offset=".68" stop-color="#8A4226"/><stop offset=".68" stop-color="#894226"/><stop offset=".68" stop-color="#884226"/><stop offset=".69" stop-color="#874126"/><stop offset=".69" stop-color="#864127"/><stop offset=".7" stop-color="#864127"/><stop offset=".7" stop-color="#854127"/><stop offset=".7" stop-color="#844027"/><stop offset=".72" stop-color="#844127"/><stop offset=".73" stop-color="#844128"/><stop offset=".73" stop-color="#854228"/><stop offset=".74" stop-color="#864228"/><stop offset=".75" stop-color="#874329"/><stop offset=".76" stop-color="#884329"/><stop offset=".77" stop-color="#894429"/><stop offset=".77" stop-color="#89452A"/><stop offset=".78" stop-color="#8A452A"/><stop offset=".79" stop-color="#8B462A"/><stop offset=".8" stop-color="#8C462B"/><stop offset=".8" stop-color="#8D472B"/><stop offset=".81" stop-color="#8D472B"/><stop offset=".82" stop-color="#8E482C"/><stop offset=".83" stop-color="#8F492C"/><stop offset=".84" stop-color="#90492C"/><stop offset=".84" stop-color="#914A2D"/><stop offset=".85" stop-color="#924A2D"/><stop offset=".86" stop-color="#924B2D"/><stop offset=".87" stop-color="#934B2E"/><stop offset=".88" stop-color="#944C2E"/><stop offset="1" stop-color="#944C2E"/></linearGradient></defs><path d="M1155 268h56v83h-56Zm0 0"/><path d="m1186.6 270.4-12.29 12.04-8.02 8.17c-7.75 9.12-11.65 20.59-10.24 32.69-1.25 7.86 2.1 14.57 7.94 19.84 4.94 4.1 11.07 6.1 17.56 7.49 8.76-1.32 17.02-5.33 22.48-11.75-.53-.24-.86-.41-.87-.64-.05-.6 5.85-9.53 6.98-23.36.24-2.88.5-5.82-.04-9.29l-7.56 11.48c-2.72 4.14-6.9 7.06-11.4 9.91 2.46-8.2 5.49-15.53 5.68-23.88.12-5.88.73-11.36-.46-17.52-5.37 6.94-11 12.01-17.36 17.02-4.8 3.78-7.6 8.9-11.84 13.92-.1-5.74.23-11.2-.92-16.88-.67.04-1.06.41-1.3.68l-6.68 10.71c1.27-8.48 5.49-15.66 11.33-21.46l6.18-6.12 8.7-8.75a2.8 2.8 0 0 1 2.2-2.31c.97-1.02 2.59-1.98 2.6-3.7-.84.53-1.7.76-2.68 1.71"/><path fill="#DF9E68" d="m675.3 845.68 13.22 2.63c.42.47.95.93 1.75.89.4-.03.96-.11 1.1-.7l9.77.3c-.2 1.48 1.59 1.5 1.4-.02l2.82-.02c.12 1.46-.8 2.37-2.09 3.25-5.49 3.77-10.54 7.94-16.91 10.25-26.55 9.62-57.88 4.82-83.64-6.15.36-1.17.95-2.21.68-3-.25-.7-1.15-1.5-2.15-2-39.29-19.97-63.14-51.61-77.49-93.84 8.15 9.18 15.74 18.12 27.7 22.99a207 207 0 0 1-17.96-44.3c-4.46-15.86-7.12-31.46-6.17-48.36-2.43 2.12-2.97 4.88-3.72 7.68l-5.47 20.38c-6.05-16.97-7.05-41.18-5.02-58.73 2.16-18.66 6.01-36.15 10.58-54.3a194 194 0 0 0 5.84-47.45c.01-5.07-.33-9.75-1.82-15.09-2.83 9.32-5.12 18.65-9.65 27.51l-9.48 18.51q-.6 1.17-1.56 1.24c-.17-4.74 3.72-10.44 2.58-16.5l.1-.43c1.11-.6 1.78-2.4.83-3.42.03-.3.1-.8-.3-1.1 1.15-.06 1.83-1.02 1.8-2.22-.07-2.77 1.77-4.9 2.14-7.45.45-3.13 1.07-7.49.49-10.47-.87-4.42-.31-15.22.22-21.56.38-4.43-.73-9.13 1.38-13.6 2.05-4.31-1.23-10.37-.88-16.05-3.06-1.9-3.12-5.2-3.86-8.21l-2.34-9.57c-1.52-6.22-3.23-12.74-7.3-17.7-1.48-1.8-2.93-3.06-4.14-5.1a82 82 0 0 0-8.84-12.14c-1.41-4.7-5.07-7.1-8.82-9.98-4.77-3.66-12.75-11.87-16.42-11a2.4 2.4 0 0 1-1.55-.3c.4-.63-.3-.9-.69-.75-.17 0-.4 0-.53-.07.16-1.3-.67-2.25-1.54-2.37l-2.79-.38-10.44-4.54c-.05-1.43.78-2.39 2.4-2.5 20-1.28 45.33 16.73 59.81 30.77 5.06 4.9 8.16 11.08 11.31 17.35 4.49 8.92 9.22 17.38 11.9 27.18 5.64 20.64 7.27 41.85 5.58 63.13l-4.37 35.31 11.1-20.24c6.02-11 8.07-32.23 6.93-44.88a.6.6 0 0 0-.2-.36c-.69-.44.07-1.27.53-.52l.21.48c6.16 8.42 10.52 17.62 13.92 27.75 2.82 8.36 5.68 16.36 6.78 25.22 1.37 11.07 1.42 21.7.88 33.03 3.98-6 7.93-11.7 10.76-18.41 12.7-30.12 14.04-49.3 10.72-82.6l13.72 31.14c3.87 8.8 5.2 18.25 6.37 27.84 1.15 9.36.27 18.44-.77 27.62-1.28 11.34-4.62 21.36-7.51 32.29l-15.68 59.1c-4.23 15.93-5.99 32.07-6.2 48.51a122 122 0 0 0 7.86 45.5l11.28 22.24c11.59 22.84 42.9 40.73 67.54 48.29 1.6.49 3.22 1.35 4.3 0"/><path fill="#FED7B3" d="M551.12 517.68c-.46-.75-1.22.08-.53.52Zm124.19 328c-1.1 1.35-2.7.49-4.31 0-24.63-7.56-55.95-25.45-67.54-48.29l-11.28-22.25a122 122 0 0 1-7.86-45.49c.21-16.44 1.97-32.58 6.2-48.5l15.68-59.11c2.9-10.93 6.23-20.95 7.51-32.29 1.04-9.18 1.92-18.26.77-27.62-1.18-9.59-2.5-19.05-6.37-27.84l-13.72-31.14c3.32 33.3 1.99 52.48-10.72 82.6-2.83 6.7-6.78 12.41-10.76 18.41.54-11.33.49-21.96-.88-33.03-1.1-8.86-3.96-16.86-6.78-25.22-3.4-10.13-7.76-19.33-13.92-27.75l-.54.4c1.14 12.65-.91 33.88-6.94 44.88l-11.1 20.24 4.38-35.3c1.69-21.3.06-42.5-5.58-63.14-2.68-9.8-7.41-18.26-11.9-27.18-3.15-6.27-6.24-12.45-11.3-17.35-14.49-14.04-39.82-32.05-59.82-30.76-1.62.1-2.45 1.06-2.4 2.5l-11.02-3.56c24.69-11.22 48.52-16.04 75.76-11.9 50.04 7.62 87.85 39.28 104.45 87.01l2 5.75c7.13 24.4 9.29 49.67 7.47 75.1l-2.36 22.06-15.34 63.43-10.22 42.21c-6.83 32.85-6.44 70.91 10.4 100.37 10.7 18.68 26.51 33.14 45.38 43.2 7.56 4.03 14.64 7.96 22.66 9.56"/><path fill="#AE6E4D" d="m705.36 848.76 13.96-1.93-12.45 45.67c-22.4 8.97-45.98 12.5-69.85 10.14-8.08-.8-15.87-1.77-23.15-4.95 9.86-3.32 19.1-3.88 27.87-8.97-17.73-2.79-34.51-5.76-50.18-13.93a246 246 0 0 1-49.61-34.1c-23.47-20.79-40.62-49.28-48.65-79.67l-3.74-14.16 11.03 20.06-5.08-18.67-6.99-43.16c-2.47-25.15-.82-49.79 5.52-74.23l9.14-35.29c1.4-.82 1.92-2.66 1.75-4.04a4.6 4.6 0 0 0 2.1-4.18q.95-.07 1.56-1.24l9.48-18.5c4.53-8.87 6.82-18.2 9.65-27.52 1.5 5.34 1.83 10.02 1.82 15.1a194 194 0 0 1-5.84 47.45c-4.57 18.14-8.42 35.63-10.58 54.29-2.03 17.55-1.03 41.76 5.02 58.73l5.47-20.38c.75-2.8 1.3-5.56 3.72-7.68-.95 16.9 1.7 32.5 6.17 48.36a207 207 0 0 0 17.97 44.3c-11.97-4.87-19.56-13.8-27.7-22.99 14.34 42.23 38.2 73.87 77.48 93.83 1 .5 1.9 1.31 2.15 2 .27.8-.32 1.84-.68 3 25.76 10.98 57.09 15.78 83.64 6.16 6.37-2.31 11.42-6.48 16.91-10.25 1.3-.88 2.21-1.8 2.09-3.25"/><path fill="#FED7B3" d="M510.25 565.9c3.17-24.04 3.42-46.3-2.67-71.1 4.04 3.63 2.78 8.99 5.92 13.13-2.61-25.66-11.34-48.46-27.75-67.7-5.88-6.89-13.01-12.14-20.23-17.45-.88-.65-1.69-.87-1.85-1.93 3.67-.87 11.65 7.34 16.42 11 3.75 2.88 7.41 5.28 8.82 9.98a82 82 0 0 1 8.84 12.14c1.2 2.04 2.66 3.3 4.13 5.1 4.08 4.96 5.8 11.48 7.31 17.7l2.34 9.57c.74 3 .8 6.3 3.86 8.21-.35 5.68 2.93 11.74.88 16.06-2.11 4.46-1 9.16-1.38 13.6-.53 6.33-1.09 17.13-.22 21.55.58 2.98-.04 7.34-.49 10.47-.37 2.55-2.21 4.68-2.14 7.45.03 1.2-.65 2.16-1.8 2.22"/><path fill="#DF9E68" d="M729.1 591.82c-9.58-4.07-19.74-4.84-30.44-3.37l5.29 2.75c-.36.98.97 1.16.77-.02l1.47.7c-.2 1.64 1.4 1.65 2.45 2.44l13.55 10.32 12.48 12.65 11.57 12.23a491 491 0 0 1 20.88 23.73c4.83 5.8 10.72 10.27 14.42 17.03 6.93 12.7 6.68 23 6.37 37.12-2.27 6.43-7.6 12.34-11.72 18.46-4.55 6.75-10.32 9.44-18.86 10.48-7.77-19.24-6.81-33.09 8.74-47.72-6.05-4.97-12.1-8.24-18.84-11.44a273 273 0 0 1-76.67-53.86l10.08 3.8c-7.37-8.48-14.23-16.23-19.48-25.83l9.64-17.1 11-21.67a116 116 0 0 1 28.54 12.05c6.55 3.85 11.88 8.92 17.18 14.23.93.92 1.48 1.79 1.57 3.02"/><path fill="#AE6E4D" d="m669.37 621.48-.35.36.35.34.35-.34Zm59.72-29.66c-.09-1.23-.65-2.1-1.57-3.02-5.3-5.3-10.63-10.38-17.18-14.23a116 116 0 0 0-28.54-12.05l-11 21.68-9.64 17.1c5.25 9.6 12.11 17.34 19.48 25.82l-10.08-3.8a274 274 0 0 0 76.67 53.86c6.74 3.2 12.79 6.47 18.84 11.44-15.55 14.63-16.5 28.48-8.74 47.72 8.54-1.04 14.31-3.73 18.86-10.48 4.12-6.12 9.45-12.03 11.72-18.46l1.98-.06c-2.4 11.71-6.16 23.16-14.24 32.64-13.85 16.26-38.84 20.16-53.86 3.43-6.16-6.87-8.3-17.23-3.16-20.3 1.73-1.03 3.9-.99 6.01-.1 8.08 3.4 8.06 12.92 11.68 16.9 1.48 1.63 3.98 1.58 5.64.32 1.16-.88 2.88-2.79 2.66-4.93l-1.6-15.34c-.55-5.33-.17-10.94 2.86-15.32l9.32-13.48-13.59-6.11a209 209 0 0 1-32.86-15.94l-24.93-14.95c-16.17-11.58-28.06-25.46-30.53-45.65-2.63 2.2-3.95 4.61-6.88 4.2a61 61 0 0 1 7.3-21.99c8.1-14.31 15.99-28.2 23.06-43.45 18.94 2.1 43.04 14.85 55.86 28.04l9.17 9.44c-.51 3.55-4 7.6-7.22 9.14-2.24.5-4.05-1.45-5.49-2.07"/><path fill="#FED7B3" d="m789.89 707.34-1.98.06c.32-14.12.56-24.42-6.37-37.12-3.7-6.76-9.59-11.23-14.42-17.03a490 490 0 0 0-20.88-23.73l-11.57-12.23-12.48-12.65-13.55-10.31c-1.05-.8-2.65-.81-2.45-2.45 15.5 5.86 26.12 11.36 37.4 24.91l25.03 30.07a153 153 0 0 1 15.53 22.21c6.93 12.11 8.44 25.04 5.74 38.27"/><path fill="#DF9E68" d="M699.75 1009.25c-6.7.48 4.35-20.66 12.45-28.55-13.46 1.12-22.93 11.97-25.86 24.45-.3-1.04-.64-2.2-.57-3.85l-13.84.04c.14 1.45-.25 2.52-1.2 2.66.09-4.78 2.55-11.04 5.96-15.13l8.75-10.5c-11.13.39-20.97 11.07-24.71 20.12-1.86-3.38-4.31-2.65-5.9-4.3 1.23-3 3.18-5.25 5.6-7.74 13.45-13.81 27.03-17.78 45.9-13.26 12.56 3 24.8 6.13 37.82 6.99-4.1-4.08-8.56-7.36-9-12.75-.66-8.28 1.35-16.4 2.25-24.27.67 1.02.64 2.12.89 3.67a127 127 0 0 0 31.29 9.28 34 34 0 0 0-5.98 13.44l-2.94 13.12c-3.17 14.22-29.2 17.05-43.45 18.05l-16.76 1.17c-1.71 1.74-1.8 5.49-.7 7.36m342.4-13.93a6.3 6.3 0 0 0-5.35 1.68c-4.66-10.68-11.46-18.2-23.88-19.55l9.17 10.87a26 26 0 0 1 4.86 8.9c-4.77-1.8-8.46 1.4-14.03-2.24-4.8-9.23-13.53-15.64-24.32-16.62 4.42 7.02 10.41 11.2 14.63 19.47-1.89-1-3.77-1.28-5.98-1.4l-12.61-.75-30.63-.13-33.62-4.56c-6.87-.93-13.23-1.74-20.6-1.53l10.88-20.15c2-3.69 4.62-6.44 9.04-7l14.12-6c-4.65 6.49-8.93 13.07-11.44 21.24 14.52 1.91 28.24.75 42.3-1.66l26.93-4.6c20.35-3.48 37.77 2.94 49.1 20.05.96 1.46 1.02 2.67 1.43 3.98"/><path fill="#AE6E4D" d="m933.83 956.3-14.12 6c-4.42.57-7.05 3.32-9.04 7.01l-10.88 20.15c7.37-.21 13.73.6 20.6 1.53l33.62 4.56 30.63.13 12.6.74c2.22.13 4.1.42 6 1.4.99 1.96 2.2 3.82 1.67 6.5l-65.64-4.34-56.8-5.87c1.18-7.06 3.33-12.72 5.52-18.87l7.35-20.65c1.51-4.23 1.97-8.38 2.45-13.1 15.64 2.7 30.31 3 46.1 2.77Zm-234.08 52.95c-1.1-1.87-1.01-5.62.7-7.36l16.76-1.17c14.25-1 40.28-3.83 43.45-18.05l2.94-13.12a34 34 0 0 1 5.98-13.44 127 127 0 0 1-31.3-9.28c-.24-1.55-.21-2.65-.88-3.67l1.2-10.54c15.9 6.33 31.69 9.87 48.8 12.18l-12.11 21.75-7.7 21.56c-1.53 5.64-5.08 8.94-10.54 10.7-18.71 6-37.96 9.08-57.3 10.44"/><path fill="#4A80AE" d="m998.52 768.69-.76 34.4-2.24 86.21-1.72 32.1c-15.29 5.64-31.44 9.38-48.16 10.33l-35.31-.43 1.52-30.57 3.96-44.87 18.78-13.46-22.66 7.02c-1.12-1.57-2.84-.63-4.32-.53-8.91.57-16.9 2.52-25.15 5.57-9.67 3.58-17.59 9.2-23.6 17.64l-11.64 16.33-28.79 45.73c-10.8.48-21.32-.96-32.42-2.25a166 166 0 0 1-54.33-15.74l20.18-80.52 8.4-27.32c13.5-6.11 26.86-14.29 36.23-25.98 2.91-.04 5.75.38 8.66 1.1 10.03 2.47 19.73 3.46 30.1 4.35 15.8 1.38 31.2 2.13 46.6.68-.7 2.19-.73 4.48-.69 6.94.1 6.09 5.07 11.33 11.2 10.9 3.73-.25 6.22-2.55 9.45-4.82-2.28 9.47-6.7 27.6-2.31 32.55 1.92 2.16 8.88 2.13 9.88-1.42l7.16-36.26c1.08-5.43 2.6-10.53 6.24-15.5 4.6 11.35 5.73 22.99 7.54 34.67l2.04 13.2a6.6 6.6 0 0 0 4.9 5.35c2.13.59 5.58-.15 6.49-2.77 1.43-4.16.76-8.9.05-13.2l-3.32-20.07 8.02 2.77c5.71 1.07 12.03-1.67 13.82-7.46 1.36-4.37 1.08-9.53-.95-13.37Zm0 0"/><path fill="#315B85" d="M881.85 788.48c-15.4 1.45-30.8.7-46.6-.67-10.37-.9-20.07-1.89-30.1-4.36a34 34 0 0 0-8.66-1.1c-9.37 11.7-22.73 19.87-36.24 25.98l-8.4 27.32-20.17 80.52-9.9-5.36c-2.01-1.1-4.98-2.33-5.49-5.15l14.49-52.07 16.97-63.23 5.77-25.15 15.44-5.63 32.81 8.27a411 411 0 0 0 72.49 7.95c4.07.08 7.7-.26 11.36 1.04Zm33.96 67.38-3.96 44.87-1.52 30.57c-7.56-.09-14.97-1.69-22.19-3.82-2.24-.66-1.76-3.94-1.9-5.73l-3.62-46.06c-.2-2.65.57-4.53 3.1-5.44Zm0 0"/><path fill="#74A2D0" d="m1005.95 765.57-.16 40.32-2.47 78.8-.87 33.12c-2.8 1.95-5.85 2.55-8.65 3.58l1.72-32.09 2.24-86.2.76-34.41Zm0 0"/><path fill="#315B85" d="m911.93 849.42-11.5 3.47c-9.93 2.99-27.58 8.7-31.63 16.5l-7.66 14.78-14.01 28.56-7.53 16.92c-.87 1.96-2.37 3.66-4.63 3.76l-16.54.75 28.8-45.72 11.63-16.34c6.01-8.44 13.93-14.06 23.6-17.64 8.24-3.05 16.24-5 25.15-5.57 1.48-.1 3.2-1.04 4.32.53m94.02-83.85-7.43 3.12-37.15 11.3-5.64-10.65c17.65-4.48 34.34-9.42 50.33-17.3Zm0 0"/><path fill="#4A80AE" d="M900.02 788.55c-1.23 1.06-4.09 7.3-7.16 6.08-2.36-.95 2.61-12.4 5.72-18.54 3.66-.39 7.15-.79 11.19.15l-7.35 10.26Zm0 0"/><path fill="#315B85" d="m949.93 783.56-6.1 1-10.9-10.7c2.93-.65 6.16-1.93 9.05-1.47 4.2 2.26 6.02 7.13 7.95 11.17"/><path fill="#32313F" d="M900.67 236.66c5.34-2.36 8.62-6.14 10.25-11.87a108 108 0 0 0 3.5-39.95c-.77-7.79-13-9.26-22.11-9.7-23.41-1.15-57.43-2.28-78.64 3.67-4.1 1.15-6.73 4.12-7.02 8.53-.96 14.63.93 38.74 10.32 48.77 3.42 3.66 8.74 4.6 13.69 5.15 16.45 1.85 32.65.7 49.17-.14 5.37-.28 16.2-2.42 20.84-4.46m110.4-54.27c.53 10.29-1.25 20.61-3.4 30.64l-5.94-9.98c-2.2 3.84-2.28 8.6-6.39 11.7 2.39-5.5 4.35-10.8 3.77-16.89-.59-6.28-7.16-6.98-14.46-6.56 3.91 10.53 4.88 20.07-2.66 29.06 14.48 16.12 17.7 12.72 34.15 12.3a60 60 0 0 0 14.77-2.04 9.3 9.3 0 0 0 6.47-6.27c3.42-10.23 4.64-20.98 4.8-31.53.07-4.53.39-9.24-1.41-13.41-3.02-7.01-20.11-7.45-30.24-7.57Z"/><path fill="#32313F" d="M1003.23 997.83c-4.22-8.26-10.21-12.45-14.63-19.47 10.8.98 19.52 7.4 24.32 16.62l2.75 8.47 12.2-.9c1-2.05-.36-3.62-.92-5.32a26 26 0 0 0-4.86-8.91l-9.17-10.87c12.42 1.35 19.22 8.87 23.88 19.55.36.8.12 2.66 1.28 3.33.93.54 3.67.42 4.48-.3 1.54-1.42-.04-3.53-.41-4.71-.41-1.32-.47-2.52-1.44-3.98-11.32-17.1-28.74-23.53-49.09-20.05l-26.94 4.6c-14.05 2.4-27.77 3.57-42.3 1.66 2.52-8.17 6.8-14.75 11.45-21.24l10.07-12.05c-15.8.23-30.47-.07-46.11-2.76-.48 4.7-.94 8.86-2.45 13.1l-7.35 20.64c-2.19 6.15-4.34 11.81-5.51 18.87l56.79 5.87 65.64 4.34c.52-2.68-.68-4.54-1.68-6.5M737.4 943.17c-.9 7.88-2.9 16-2.24 24.27.43 5.39 4.89 8.67 9 12.75-13.03-.86-25.27-3.98-37.82-7-18.88-4.51-32.46-.55-45.9 13.27-2.43 2.5-4.38 4.75-5.6 7.73-.96 2.32-1.97 4.85-1.15 7.85.43 1.58 3.11 3.48 4.61 2.72 1.63-1.7 1.65-4.37 2.43-6.26 3.74-9.05 13.58-19.73 24.71-20.12l-8.75 10.5c-3.4 4.1-5.87 10.35-5.95 15.13-.02 1.02-1.47 3.48.41 3.68l14.06 1.4c1.02-.61 1.4-2.94 1.13-3.93 2.93-12.49 12.4-23.33 25.86-24.45-8.1 7.9-19.14 29.03-12.45 28.55 19.34-1.36 38.59-4.44 57.3-10.45 5.46-1.75 9.01-5.05 10.53-10.69l7.7-21.56 12.11-21.75c-17.1-2.3-32.88-5.85-48.78-12.18Zm162.62-154.6 2.4-2.07 7.35-10.25c-4.04-.94-7.52-.54-11.2-.15-3.1 6.14-8.07 17.59-5.71 18.53 3.07 1.23 5.93-5 7.16-6.07m43.81-3.99c1.78 1.75 3.09 4.7 6.88 4.77.8-1.97.1-3.9-.78-5.77-1.92-4.04-3.76-8.9-7.95-11.17-2.9-.46-6.12.82-9.05 1.47Zm17.54-4.57c2.03 3.84 2.31 9 .95 13.37-1.8 5.79-8.1 8.53-13.82 7.46l-8.02-2.77 3.32 20.08c.7 4.3 1.38 9.03-.05 13.19-.9 2.62-4.36 3.36-6.5 2.77a6.6 6.6 0 0 1-4.9-5.34l-2.03-13.22c-1.81-11.67-2.95-23.31-7.54-34.66-3.64 4.97-5.16 10.07-6.24 15.5l-7.16 36.26c-1 3.55-7.96 3.58-9.88 1.42-4.39-4.95.03-23.08 2.31-32.55-3.23 2.27-5.72 4.57-9.45 4.83-6.13.42-11.1-4.82-11.2-10.91-.04-2.46-.02-4.75.7-6.94l3.76-11.64c-3.66-1.3-7.3-.96-11.36-1.04a411 411 0 0 1-72.49-7.95l-32.8-8.27-15.45 5.63-5.77 25.15-16.97 63.23-14.49 52.07c.51 2.82 3.48 4.06 5.5 5.15l9.89 5.36A166 166 0 0 0 786 931.9c11.1 1.29 21.62 2.73 32.42 2.24l16.54-.74c2.26-.1 3.76-1.8 4.63-3.76l7.52-16.92 14.02-28.56 7.66-14.78c4.05-7.79 21.7-13.51 31.63-16.5l11.5-3.47 22.66-7.02-18.78 13.46-30.1 14.39c-2.52.91-3.3 2.79-3.09 5.44l3.62 46.06c.14 1.79-.34 5.07 1.9 5.73 7.22 2.13 14.63 3.73 22.19 3.82l35.3.43c16.73-.95 32.88-4.7 48.17-10.34 2.8-1.03 5.85-1.64 8.65-3.58l.88-33.11 2.46-78.81.16-40.32.1-13.53c-15.98 7.88-32.67 12.82-50.32 17.3Zm-228.45-63.1 1.08-10.99c-3.2-.12-7.38.93-9 3.6-1.18 1.97 1.78 3.2 2.73 3.95 1.86 1.45 2.74 3.52 5.2 3.44m30.28-96.66-.82-26.52c-3.87 3.07-6.43 5.8-10.69 6.39-2.04.28-4.25.35-5.32 2.44 6.54 5.4 11.58 11.33 16.83 17.7m26.68 87.1c2.7-13.24 1.19-26.17-5.74-38.28a153 153 0 0 0-15.53-22.21l-25.03-30.07c-11.28-13.55-21.9-19.05-37.4-24.9l-1.47-.71c-.2-.1-.54-.02-.77.02l-5.29-2.75c10.7-1.47 20.86-.7 30.43 3.37 1.44.62 3.25 2.56 5.49 2.07 3.21-1.53 6.7-5.6 7.22-9.14l-9.17-9.44c-12.82-13.19-36.92-25.94-55.86-28.03-7.07 15.23-14.96 29.13-23.07 43.44a61 61 0 0 0-7.29 22c2.93.4 4.25-2.02 6.88-4.21 2.47 20.2 14.36 34.07 30.53 45.65l24.93 14.95a209 209 0 0 0 32.86 15.93l13.6 6.12-9.33 13.48c-3.03 4.38-3.41 9.99-2.86 15.32l1.6 15.34c.22 2.14-1.5 4.05-2.66 4.93-1.66 1.26-4.16 1.31-5.63-.32-3.63-3.98-3.6-13.5-11.69-16.9-2.1-.89-4.28-.93-6.01.1-5.15 3.07-3 13.43 3.16 20.3 15.01 16.73 40 12.83 53.86-3.43 8.08-9.48 11.85-20.93 14.24-32.64m315.69-135.9c-6.4 9.51-15.93 22.89-26.93 20.26-4.65-1.12-7-5.01-8.5-9.02l-.27-12.2 2.33-19.93a30.5 30.5 0 0 0-10.93 9.35l-22.98 32.85c-.33-.9-1.34-.69-1.59-.6-.3.1.37-1.04.4-1.48a65 65 0 0 1 13.3-34.14l-6.29-8.92-2.51-3.44c-10.66 13.14-22.68 24.2-37.23 32.83-.63 1.48-.58 3.78-.34 5.44l4.31 30.36c.78 5.47 5.87 11 9.49 15.24 11.14 13.05 38.18 26.19 51.18 14.53-3.27-.82-5.37-.7-7.8-2.07 3.48-1.65 6.9-1.59 10.42-2 6.2-.75 11.63-3.12 16.1-7.61 7.49-7.53 13-16.4 18.1-25.84 6.7-12.34 11.02-25.06 15.32-38.38l8.47-26.3a7.8 7.8 0 0 0-7.1-.2c-4.52 11.26-10.27 21.34-16.95 31.28m17.13-103.91c-1.52 2.02-2.1 4.36-.75 7.1a7.1 7.1 0 0 0 5.9 3.65l13.62 1c5.9.43 9.84 6.26 12.22 11.62-9.03-2.04-18.1-4.52-27.52-2.27-3.02.72-5.48 1.88-7.04 4.12-.7 1-2.2 1.56-1.93 3.85.58 4.98 4.37 8.76 9.26 10.33l11.58 3.72c2.48.79 4.55 2.31 6.09 4.97l-10.85 2.54-7.96 18.34c12.01-5.06 24.8-12.78 31.15-22.27 2.54-1.9 3.39-5.14 4.57-8.38a35 35 0 0 1 6.83-15.35c1.58-6.1 1.05-12.21-.38-18.07-4.5-3.92-8.75-7.06-14.2-9.16-9.98-2.65-25.23-2.9-30.6 4.26m8.97-25.18c-.8 3.49 1.2 6.38 4.87 7.08l13.44 2.56c5.94 1.13 10.2 5.48 12.98 10.74l4.49 8.5c1.5-1.89 1.55-3.54 2.16-5.3l1.85-5.36c2.47-7.12.8-14.5-5.6-19.14-10.47-7.59-31.8-9.6-34.19.92m-30.93-4.29c.05 1.45-.01 2.71.42 4.27 1.36-1.4 1.07-2.66 1.53-3.9l5.65-15.1c-2.52-1.75-5.78.32-6.62 3.1-1.17 3.85-1.1 7.64-.98 11.63m-654.6-25.63 10.43 4.54c1.11 1.36 2.82 1.91 4.33 2.75.13.07.36.07.53.07.18.25.42.57.7.75.4.25 1.08.41 1.54.3.16 1.06.97 1.27 1.85 1.93 7.22 5.3 14.35 10.56 20.23 17.45 16.41 19.24 25.14 42.04 27.75 67.7-3.13-4.14-1.88-9.5-5.92-13.14 6.09 24.82 5.84 47.07 2.67 71.1.38.3.32.8.29 1.11-.97.82-.85 2.27-.83 3.42l-.1.44-4.08 15.6c-.48 1.84-.96 3.33-.6 5.07-1.08.72-1.42 2.79-1.75 4.04l-9.14 35.3c-6.34 24.43-7.99 49.07-5.52 74.22l7 43.16 5.07 18.67-11.03-20.06 3.74 14.16c8.03 30.4 25.18 58.88 48.65 79.67a246 246 0 0 0 49.6 34.1c15.68 8.17 32.46 11.14 50.19 13.93-8.78 5.09-18.01 5.65-27.87 8.98 7.28 3.17 15.07 4.14 23.15 4.94 23.87 2.36 47.46-1.17 69.86-10.14l12.44-45.67-13.97 1.93-2.8.02c-.56 0-.89.04-1.4.02l-9.78-.3-2.85-.19-13.21-2.63c-8.02-1.6-15.1-5.53-22.66-9.56-18.87-10.06-34.69-24.52-45.37-43.2-16.85-29.45-17.24-67.52-10.4-100.37l10.21-42.2 15.34-63.44 2.36-22.05c1.82-25.44-.34-50.72-7.47-75.1l-2-5.76c-16.6-47.73-54.41-79.39-104.45-87-27.24-4.15-51.07.67-75.76 11.9Zm654.58 70.79-9.19 32.94a329 329 0 0 0-9.21 43.03c-.98 6.97-4.47 19.32-.62 21.5.87.49 2.69.09 3.65-1.08l6.3-7.62c7.7-9.34 12.68-20.23 18.74-30.77l10.21-22.07c1.84-3.97-13.63-4.22-15.05-20.62-.05-.6-.34-1.2-.99-1.38 1.08-4 1.94-8.12 3.78-11.88 0-.18.07-.5.11-.66l.2-.9c3.51-5.02.47-11.83 2.9-18.88 1.66-4.86 6.15-7.97 9.84-11.2-2.08-11.6-4.02-15.09 3.82-22.63.77-.73 1.95-1.67 2.9-2.14 3.39-1.67 6.85-3.62 10.91-4.2 8.1-1.15 15.76-.12 24.06 2.43l6.58-24.93 1.75-11.48c-1.5-3.4-5.9-3.9-8.75-5.15l6.18-22.91c2.96 1.7 4.89 3.53 7.63 4.14.85-1.83 1.26-4.73-.29-5.93-3.7-2.9-8.48-4.61-12.7-5.7-1.31-.34-3.93-1.9-5.24-.01-8.14 11.79-14.73 24.13-20.94 37.03l-13.6 28.27-14.48 36.5-7.65 22.38Zm102.53-238.9c-.48.28-1.12.4-1.53 1.33-3.1 7.14-6.42 14.1-11.26 20.17-.88 1.1-1.33 1.75-1.19 2.87-.84.52-1.7.75-2.68 1.7l-12.28 12.04-8.02 8.17c-7.75 9.12-11.65 20.59-10.24 32.69-1.25 7.86 2.1 14.57 7.94 19.84 4.94 4.1 11.07 6.1 17.56 7.49 8.76-1.32 17.02-5.33 22.48-11.75-.28-.52.22-.8.47-.95.3-.21.54-.56.73-.84l.68-.52c1.77.29 2.17-1.52 3.1-2.57 13.08-14.89 15.2-41.16 9.53-59.46l-4.63-14.9a37 37 0 0 0-4.65-10.06c-1.24-1.88-1.85-4.97-4.1-5.81-.33-.13-.65-.69-.96-.7-.8 0-.72.95-.95 1.25m-185.03-3.44-11.65.54 6.68 11.42c2.35 4.02 5.74-2.81 4.97-11.96m-40.2 27.67c7.02-5.75 12.37-13.58 13.48-22.03-2.33-6.63-7.19-10.74-13.8-9.78-8.6-1-16.14 1.59-23.24 6.11-3.55 2.26-6.87 5.84-5.15 10.42.57 1.52 3.46 2.28 4.94 2.58 15.84 3.17 16.22 13.24 23.77 12.7m-5.64-58.8c2.24.8 4.4-2.23 4.84-3.87.58-2.16.3-5.16-2.3-6.32-2-.9-6 .35-6.3 2.94-.29 2.43 1.54 6.43 3.75 7.24m-48.08-1.7-1.77 9.92c-1.97 11.08-4.27 20.7-14.14 26.93-3 1.9-6.87 2.56-10.63 3.38-12.19 2.64-24.17 3.41-36.7 3.78-12.81.38-25.12.4-37.64-2.11-9.16-1.47-16.85-7-19.9-15.51a118 118 0 0 1-6.82-37.65l-46.08 7.16c-8.54 1.33-17.14 2.65-25.83 4.68-.83.34-1.83.76-2.04 1.28-1.33 3.2 12.89 9.2 20.02 10.85l-1.93 5.45c-3.43 9.64-6.2 19.93-7.52 30.59l13.97-8.65c-1.57 11.62-4.27 22.3-4.37 34.2 2.46.73 3.92-6.81 9.13-10.6 1.59 9.69 5.25 17.81 8.85 26.71l11.84 29.32 8.7 31.3c4.4 15.8 5.38 31.96 4.4 48.16l17.19 11.34c13.57 8.97 27.92 17.19 43.24 22.91l16.18 6.05c23.38 7.3 53.02 8.94 69.62-10.55 4.61-5.41 8.75-12.9 7.7-19.94l-3.92-10.8-5.25-31.25-.1-16.75 1.32-14.78-17.63-1.47c-13.2-1.1-28.95-8.54-31.64-8.18l-.6.08c.02-.4-.18-.82-.57-.94l-.38-.13a5 5 0 0 0-2.44-1.22 2 2 0 0 0-.5-.05l-2.29-1.34-4.78-2.32-1.46-.66-2.9-1.5c1.49-.72 2.8-.25 4.54.11 25 5.2 47.34 8.17 72.82 4.3 19-2.89 37.06-12.38 43.43-31.35-9.9-2.25-17.53-2.4-26.57.74a97 97 0 0 1-46.8 4.57c-14.44-2.11-27.15-8.82-39.05-17-8.55-5.89-16.16-12.04-22.08-20.6-1.21-1.75-3.35-1.94-5.64-2.6 6.5-4.36 19.43-5.89 23.73-.77-2.12-.03-3.83-.74-5.8 1.1 10.47 11.34 22.87 20.75 37.49 25.8 19 6.57 39.37 5.48 58.14-.88a28 28 0 0 1 10.58-1.6l16.55.63c6.7.26 12.07-3.29 15.72-8.68 6.36-9.37 4.85-19.11-3.2-27.8-1 15.71-15.99 30.94-30.3 27.1-8.65-2.31-16.76-6.64-24.07-11.84-7.5-5.35-10.77-14-5.8-20.16 7.22-8.95 18.14-13.87 29.51-14.4l10.13-.49c-2.23-3.15-5.36-4.52-7.69-6.78l-8.36-8.15c-2.32-2.26-3.3-5.25-4.32-8.27l-2.4-7.15c-.58-1.73-1.36-4.22-3.27-5.47-13.44-.4-27.37-.65-29.62 11.95M999.28 187l.8-14.82c-9.4.02-18.61.65-27.28 3.67-3.13 1.1-5.38 3.46-5.7 6.72-.54 5.3-.98 10.43.52 16.18 4.73-14.45 16.86-15.46 31.66-11.75m-1.83-23.43a6.5 6.5 0 0 0-2.47-5.3c-4.4-3.13-11.4.8-14.22 6.38Zm-35.14-53.86 7.3 4.14c4.69-10.06 12.58-21.16 21.73-14.54l5.14 5.83c-3.9-.89-8.19-1-11.54 1.16-3.7 2.37-4.34 6.17-4.99 9.86-.6 3.4.03 4.25 2.3 6.49l13.97 13.77 8.58 9.61a72 72 0 0 0 1.5-14.98c0-9.1-.68-18.3-4.14-26.93-2.2-5.46-5.52-9.16-9.76-12.36-3.69-2.78-7.35-5.12-12.24-4.94-12.3.44-21.47 6.9-29.25 17.36Zm-164.85 21.62c.15.57.76 1.43-.1 2.61l-16.62-13.82c-13.51-10.59-33.29-21.3-49.99-17.06-12.13 3.07-21.98 11.44-27.72 21.92l-1.25 2.28-4.47 8.59a19 19 0 0 0-1.8 4.48l-1.64 7.15c-4.23 18.43 2 38.5 14.72 53.09 1.78 2.04 4.38-.2 5.9-.74 6.73-2.37 14.11-4.96 21.45-6.26.07-3.37-5.02-5.11-1.75-10.37 4.34-6.97-.58-18.3 8.88-25.17 1.27-.92 2.38-1.27 2.39-3.55.01-4.12 3.16-6.8 7.38-6.35 1.27.13 2.73.19 3.82-.76-2.55-4.78-6.42-7.63-9.9-11.45-7.1-7.82-18.22-11.2-28.04-6.54-5.41 2.56-9.65 7.07-12.67 11.73l-.66 1.36-1.6-.08.53-3.42 4.24-8.1c3.28-6.24 11.65-12.22 19.23-14.39 26.2 1.68 41.18 21.53 44.2 47.78-1.7-.6-2.85-1.07-3.76-1.67-3.87-2.52-7.08-6.16-12-7.72l9.24 9.4c-2.27 1.67-4.97.69-7.93 2.04l5.46 5.56c-4.63 4.72-9.7 8.13-14.75 12.2 3.8 1.2 6.12 2.47 8.98 4.97 12.53-3.25 25.14-4.86 38.07-7.13 3.81-5.6 9.27-10.8 16.66-12.41l8.9-1.94 21.99-2.1c1.23-.11 2.36.15 3.56-.33.52-.2 1.49-.21 2.07-.2h15.27c-3.77-2.83-7.7-3.67-11.42-4.63l-5.18-1.34c-9.69-1.14-19.17.86-27.96 4.1l-10.43 3.84c5.84-12.75 17.69-22.56 32.29-24.73 20.59-3.05 38.18 9.72 52.5 23.76 7.71 1.4 16.78.93 23.63 5.6 5.32 3.63 6.68 10.6 7.25 16.97a83 83 0 0 1 30.39-3.03l3.55-8.56 6.5-14.42c2.95-6.52 6.92-12.01 12.06-16.35a29 29 0 0 1 10.07-3.58c-15.01-16.4-33.52-27.85-54.57-33.66-6.45-1.78-12.25-3.58-19.33-2.79 4.6 2.44 5.31 6.98 8.36 9.2.13 1.13 1.51 2.19 1.2 3.28-7.1-5.77-15.46-9.16-24.34-13.04 5.04-4.11 10.18-6.48 15.76-10.03-16.12-1.53-31.18 1.28-46.22 4.96l12.84-14.51c-14.35 1.63-27.87 5.83-41.77 10.61-16.23 5.59-31.3 12.59-46.63 20.55Zm5.01 814.5c-6.5 8.8-12.56 17.42-16.33 27.37l-8.81 23.25c-2.23 5.87-6.09 9.64-11.94 12-30.11 12.17-72.01 13.76-104.14 9.14-5.94-.86-11.76-2.52-16.39-6.1-3.98-3.09-4.65-9.33-3.42-14.23 2.88-11.54 10.66-20.83 20.52-27.4 9.84-6.55 21-9.28 32.95-9.3 9.42-.02 17.97 2.7 27.38 5.22l2.5-21.83 1.28-16.18c-6.74-3.43-13.43-6.35-19.42-10.75-3.34-2.46-4.77-5.56-4.45-10.7-46.98 16.78-97.46 10.42-139.08-16.68-2.28-1.49-4.13-3.15-5.18-5.74 9.04 1.08 17.3 3.42 26.46 2.48l-17.24-10.88c-18.66-11.76-35.57-25.21-50.48-41.66-16.58-18.29-28.11-39.98-35.59-63.5-5.84-18.38-10.03-36.63-10.46-56.25 2.82 5.48 2.98 11.62 7.48 16.1-5.9-29.5-5.58-58.04-.06-86.83 3.42-17.79 7.62-34.55 12.25-51.97 7.02-26.46 10.86-49.83 5.14-76.95-5.85-27.7-15.89-45.33-39.24-62.75l9.98 1.15c5.4.63 9.28 2.57 14.8 4.75l-11-12.8c-18.57-18.51-45.04-26.12-71.13-29 10.86-9.3 22.4-15.25 34.68-20.65 20.24-8.9 41.54-13.06 63.67-13.03 43.1.07 82.7 19.8 109.15 53.54 37.3 47.6 40.4 115.46 26.06 172.56l-16.5 65.72c-10.32 41.06-15.27 75.48 5.58 114.28 5.35 9.95 11.7 18.34 20.71 24.9l13.82 10.05c15.66 10.15 34.14 15.63 52.73 12.83l14.15-2.13 7.24-25.76 10.49-42.69c-15.47-.8-27.64-11.32-33.96-24.41-4.67-9.77-2.08-20.62 6.03-27.53.6-6.5 4.24-11.88 9.9-14.62 5-2.39 10.02-1.4 16.12-2.2l-46.47-22.27c-14.87-7.13-39.33-26.74-46.2-43.05l-7.4 6.56-3.47-16.58a55 55 0 0 1 4.39-27.97 306 306 0 0 1 20.24-38.94c-3.35-8.07-7.17-14.11-2-21.1a1187 1187 0 0 0 55.39-81.9l8.86-12.24c4.47-6.18 10.61-10.66 16.74-15.37l33.9-26.08c.68-33.64-12.33-66.9-25.66-98.17-5.82.09-8.52 7.05-10.52 2.3-3.75-8.9-4.37-18.34-4.95-28.29-6.53.22-10.75 7.9-11.93 2.04-2.82-13.95 2.34-30.86 5.82-45.1l-7.96-5.33c-3.21-2.15-3 5-6.68 7.16-2.77 1.63-5.62-.05-7.47-1.66-2.34-2.03-3-4.65-2.54-7.83l1.22-8.29a123 123 0 0 1-11.51-16.78 78.3 78.3 0 0 1 6.42-86.74c2.92-3.72 6.26-6.71 9.82-9.65 24.1-19.85 56.35-12.1 79.31 7.79 7.05-5.16 14.64-9.03 22.84-12.57 31.3-13.48 58.87-22.13 93.28-24.49.59-.04 1.74-.08 2 .25.2.28-.53 1.15-.73 1.44l-8.37 12.28c2.3-.64 3.78.13 5.76.12l16.07-.08c6.7-.03 12.74 2.58 19.43 4.69l-5.21 5.45c3.16.83 5.3 1.5 7.69 3l12.4-12.62c17.73-14.6 38.57-16.36 54.13 1.64 15.67 18.14 14.66 51.27 7.64 74.8 11.18.52 29.77.5 35.16 7.29 3.17 3.98 3.03 9.05 3.16 14 .37 14.52-.4 28.45-4.05 42.45-1.56 5.98-6.02 9.85-12.09 11.53-2.46.67-3.98 1.8-4.04 4.63-.28 13.9-10.42 20.6-11.44 25.32-5.5 25.42-18.35 29.2-23.45 38.73-6.23 11.62-15.63 23.04-28 27.72l-19.27 7.3c-3.1 1.17-4.7 3.48-5.38 6.82-1.96 9.53-1.96 19.24-.5 28.96l3.03 20.11c30.14 16.33 45.4 28.3 63.14 57.2l25.48 41.5 17.05 24.93c2.88 4.22.74 9.5-2.71 13.28l9.03 12.73 15.11-14.18c1.82-1.7 3.34-4 4.06-6.42l8.8-29.63c-4.93-9.58-6.43-19.98-3.68-30.27l6.04-15.53c4.19-10.77.68-17.08 2.1-25.81 1.26-7.66 7.13-12.9 14.89-12.98 3.53-.04 6.66.43 10.08 1.26l14.45-30.6 21.61-36.5c-7.8-14.3-9.02-31.37-2.45-46.3 4.27-9.72 11.18-17.28 18.85-24.4l14.5-13.47c10.73-9.97 12.88-28.72 10.18-43.51a59 59 0 0 1 22 20.77c17.95 28.68 23.38 70.4 4.7 99.45-6.63 10.32-16.6 17.17-27.85 21.68-2.03.81-3.63 2.38-3.97 4.74-3.21 21.78-8.1 42.88-13.94 64.12-.48 1.78-.25 3.2 1.08 4.23 9.12 7.08 10.97 20.92 7.12 31.81-3.52 9.97 1.55 15.1-4.15 29.41l-6.34 15.92c-2.84 7.12-7.07 13.04-12.36 18.37l-16.13 12.5c-4.44 9.01-6.8 18.52-9.7 28.14-9.44 31.51-21.51 57.55-46.92 79.14-14.81 12.58-34.41 14.45-51.4 5.65-9-4.64-16.96-9.9-24.19-17.38l1.62 11.45 11.3 83.15c.78 5.67-1.06 10.27-6.23 13 .16 57.08-1 113.66-3.55 170.66-.27 6-2.73 10.42-8.09 12.93a141 141 0 0 1-32.38 10.44c-5 1-8.29 3.15-12.12 6.36-6.71 5.62-12.97 11.64-16.62 20.14-.43 1 .57 1.82 1.66 1.32l30.98-5.2c11.41-1.9 22.4-3.17 33.94-1.67 16.15 2.1 30.47 10.62 38.79 24.48 5.27 8.78 7 22.24-2.04 25.31-16.06 5.46-42.72 6.2-60.43 5.05l-50.28-3.29-42.29-4.56-17.46-2.79c-8.32-1.33-9.79-11.79-6.8-20.33l7.58-21.64 8.02-21.42c.7-1.86-11.27-3.74-11.76-9.77l-3.32-41.14c1.12-1.08-.55-1.78-.62-.42l-21.88 49.41c-1.51 3.43-4.08 4.6-7.56 5.16-12.66 2.03-24.92 2.09-38.6 1.42"/><path fill="#FED7B3" d="M763.21 620.24c-5.25-6.36-10.3-12.3-16.83-17.7 1.06-2.08 3.28-2.16 5.32-2.43 4.26-.59 6.82-3.32 10.7-6.39Zm0 0"/><path fill="#AE6E4D" d="m1044.12 547.61-7.55 12.65c-4.95 8.7-10.93 16.15-19.02 22.1.36 5.26 2.45 9.34 4.36 13.74a52.5 52.5 0 0 0 12.8 18c10.26 9.57 25.56 10.63 37.4 2.48a83.5 83.5 0 0 0 27.09-30.59l6.66-13.03a1.3 1.3 0 0 0-.28-1.51c6.68-9.94 12.43-20.02 16.96-31.28a7.8 7.8 0 0 1 7.1.2l-8.48 26.3c-4.3 13.32-8.62 26.04-15.32 38.38-5.1 9.44-10.61 18.3-18.1 25.84-4.47 4.5-9.9 6.86-16.1 7.6-3.51.42-6.94.36-10.42 2 2.43 1.38 4.53 1.26 7.8 2.08-13 11.65-40.04-1.48-51.18-14.53-3.62-4.24-8.71-9.77-9.49-15.24l-4.31-30.36c-.24-1.66-.29-3.96.34-5.44 14.55-8.62 26.57-19.7 37.23-32.83Zm0 0"/><path fill="#DF9E68" d="M1038.3 592.75c7.99-10.09 16.43-20.16 27.88-27.79 2.44 6.88.36 14.67 3.98 17.72 1.5 4 3.84 7.9 8.5 9.02 10.99 2.63 20.53-10.75 26.92-20.25.35.3.56.97.28 1.5L1099.2 586a83.5 83.5 0 0 1-27.09 30.6c-11.83 8.14-27.13 7.09-37.39-2.49a52.5 52.5 0 0 1-12.8-18c-1.91-4.4-4-8.48-4.36-13.74 8.1-5.95 14.07-13.4 19.02-22.1l7.55-12.65 6.3 8.92a65 65 0 0 0-13.3 34.14c-.04.44-.72 1.58-.4 1.47.24-.08 1.25-.3 1.58.61"/><g clip-path="url(#a)"><g clip-path="url(#b)"><path fill="url(#c)" d="m1248.3 293.54-76.68-50.58-54.63 82.84 76.68 50.57Zm0 0"/></g></g><path fill="#DF9E68" d="M1156.48 514.24c-4.24-3.03-7.74-6.9-12.74-8.52l-12.58-4.04a22.6 22.6 0 0 1-12.02-8.92c1.56-2.24 4.02-3.4 7.05-4.12 9.42-2.25 18.48.24 27.5 2.27l5.9 1.34c-6-22.52-25.68-15.24-35.7-22.62-.72-.53-.97-1.25-1.18-2.1 5.36-7.14 20.61-6.9 30.6-4.25 5.44 2.1 9.7 5.24 14.2 9.16 1.42 5.86 1.95 11.98.37 18.07a35 35 0 0 0-6.83 15.35c-1.18 3.24-2.03 6.47-4.57 8.38m-47.82-30.53-.2.9c-.44-.24-.83.1-.12.67-1.84 3.76-2.7 7.88-3.78 11.88-.76 2.81-2.45 6.22-1.76 9.59a24 24 0 0 0 7.02 12.77c-1 5.88-3.78 10.63-5.8 16.03-3.83 10.26-9.27 19.52-18.05 26.7-1.88-2.32-.3-4.33-.42-6.56-1.32 1.5-1.35 3.62-3.23 3.51a329 329 0 0 1 9.21-43.03l9.2-32.94c1.57-.02 1.66-2.41 2.4-2.97 2.4-1.8 5.25 1.16 5.53 3.45m52.78-97.61c.22 3-.6 5.96-1.57 9.06l-8.64 27.4a61 61 0 0 0-20.73 2.62c-1.88.56-3 1.76-2.38 3.7a13 13 0 0 0-2.9 2.13c-.79-.13-1.78-.14-2.35-.52-.85-.57-.95-1.96-.48-2.95l3.58-7.53 2.11-4.98c.94-2.2 1.22-5.5 3.98-6.49 1.47-.52 3.26.23 4.84.6l12.59-26.5q2.01-.3 4.27.58Zm0 0"/><path fill="#AE6E4D" d="M1082.32 559.2c1.88.1 1.9-2 3.23-3.51.13 2.23-1.46 4.24.42 6.56 8.78-7.18 14.22-16.44 18.05-26.7 2.02-5.4 4.8-10.15 5.8-16.03-3.6-3.44-6-7.8-7.02-12.77-.7-3.37 1-6.78 1.76-9.59.65.19.94.78 1 1.38 1.4 16.4 16.88 16.65 15.04 20.62l-10.2 22.07c-6.07 10.54-11.05 21.43-18.76 30.77l-6.29 7.62c-.96 1.17-2.78 1.57-3.65 1.08-3.85-2.18-.36-14.53.62-21.5"/><path fill="#FED7B3" d="m1163.48 355.14-3.63 5.85-10.36 21.65-12.59 26.5c-1.58-.37-3.37-1.12-4.84-.6-2.76.98-3.04 4.3-3.98 6.5l-2.11 4.97-3.58 7.53c-.47.99-.38 2.38.48 2.95.57.38 1.56.38 2.34.52-7.84 7.54-5.9 11.03-3.81 22.63-3.7 3.24-8.19 6.34-9.86 11.2-2.42 7.05.62 13.86-2.88 18.87-.28-2.29-3.13-5.25-5.53-3.45-.74.56-.83 2.95-2.4 2.97l.84-3.92 7.65-22.38 14.48-36.5 13.6-28.27c6.2-12.9 12.8-25.24 20.94-37.03 1.3-1.9 3.93-.33 5.24 0"/><path fill="#AE6E4D" d="M1119.14 492.76a22.6 22.6 0 0 0 12.02 8.92l12.58 4.04c5 1.61 8.5 5.5 12.74 8.51-6.36 9.5-19.14 17.22-31.15 22.28l7.96-18.34 10.85-2.54a10.5 10.5 0 0 0-6.09-4.97l-11.58-3.72c-4.89-1.56-8.68-5.35-9.26-10.33-.27-2.3 1.23-2.85 1.93-3.85m8.98-63.89c-.62-1.93.5-3.13 2.38-3.7a61 61 0 0 1 20.73-2.62l8.64-27.39c.98-3.1 1.79-6.06 1.57-9.05l1.22-.57c2.85 1.25 7.25 1.76 8.75 5.15l-1.75 11.48-6.59 24.93c-8.3-2.55-15.94-3.58-24.05-2.43-4.06.58-7.52 2.53-10.9 4.2"/><path fill="#DF9E68" d="M1169.6 465.94c-2-6.49-5.67-12.46-11.51-16.49-7.74-5.32-17.46-3.93-26.42-7.1 2.38-10.51 23.72-8.5 34.19-.9 6.4 4.64 8.07 12.01 5.6 19.13Zm0 0"/><path fill="#ABA2B0" d="m1162.66 385.54-1.22.57-7.68-2.9a8.4 8.4 0 0 0-4.27-.57l10.36-21.65 3.63-5.85c4.22 1.08 9 2.8 12.7 5.7 1.55 1.2 1.14 4.1.29 5.93-2.74-.62-4.67-2.44-7.62-4.14Zm0 0"/><path fill="#FED7B3" d="M1070.16 582.68c-3.62-3.05-1.54-10.84-3.98-17.72-11.45 7.63-19.9 17.7-27.88 27.8l22.98-32.86a30.5 30.5 0 0 1 10.93-9.35l-2.33 19.93Zm0 0"/><path fill="#AE6E4D" d="M1169.6 465.94c-.6 1.76-.65 3.41-2.15 5.3l-4.49-8.5c-2.78-5.26-7.04-9.6-12.98-10.74l-13.44-2.56c-3.66-.7-5.66-3.6-4.87-7.08 8.95 3.16 18.68 1.76 26.42 7.1 5.84 4.02 9.5 10 11.52 16.48"/><path fill="#DF9E68" d="M1205.16 243.77c6.74 12.8 11.8 26.46 13.96 41.18 2.4 16.2-.52 36.37-11.2 48.65-.9 1.02-1.8 1.81-2 2.97l-.69.52-.73.84c-.25.16-.75.43-.47.94-.53-.23-.86-.4-.87-.63-.05-.6 5.85-9.53 6.98-23.36 3.03-.03.23 4.35 2.19 7.55l2.46-4.3c3.48-6.1 3.07-13.58 3.24-20.62l-1.35-17.52-2.93-11.1-4.43-10.96c-1.19-2.96-1.68-6.66-4.93-8.75-1.06.01-1.66 2.06-1.89 2.96l-1.52-.18 2.27-7.64c.22-.3.15-1.25.95-1.24.3 0 .63.56.96.69"/><path fill="#AE6E4D" d="M1153.7 490.91c-2.38-5.36-6.31-11.2-12.22-11.62l-13.63-1a7 7 0 0 1-5.89-3.66c-1.36-2.73-.77-5.07.75-7.1.2.85.46 1.57 1.18 2.1 10.02 7.38 29.69.1 35.7 22.62Zm0 0"/><path fill="#864228" d="M1205.91 336.57c.2-1.16 1.11-1.95 2-2.98 10.69-12.27 13.6-32.43 11.21-48.64-2.16-14.72-7.22-28.38-13.96-41.18 2.25.84 2.86 3.93 4.1 5.8a37 37 0 0 1 4.65 10.07l4.63 14.9c5.67 18.3 3.55 44.57-9.54 59.46-.92 1.05-1.32 2.86-3.09 2.57m-2.66-92.25-2.27 7.64c-1.66 1.7-2.76 4.07-3.5 6.4-2.96 3.2-4.42 8.03-8.2 10.34-.15-1.12.3-1.77 1.18-2.87 4.84-6.08 8.16-13.03 11.26-20.17.4-.92 1.05-1.05 1.53-1.34m-17.54 32.27 11.6-15.84c.59-.82.18-1.82.18-2.39 2.44-.15 2.22-3.15 4.5-4.16-2.28 9.07-8.84 16.7-16.28 22.39"/><path fill="#FD9D11" d="M1210.14 314.88c.24-2.88.5-5.82-.04-9.29l-7.56 11.48c-2.72 4.14-6.9 7.06-11.4 9.91 2.46-8.2 5.49-15.53 5.68-23.88.13-5.88.73-11.36-.46-17.52-5.37 6.94-11 12.01-17.36 17.02-4.8 3.78-7.6 8.9-11.84 13.92-.1-5.74.23-11.2-.92-16.88-.67.04-1.06.41-1.3.68-.73-1.07-1.03-2.37-.14-3.59l4.8-7.16 6.17-6.12c1.55.34 2.24-.9 3.28-1.73 2.35-1.88 5.06-2.93 6.66-5.13 7.44-5.69 14-13.32 16.27-22.4l.52-2.04c.23-.9.83-2.96 1.9-2.97 3.24 2.1 3.73 5.8 4.92 8.75l4.43 10.96 2.93 11.1 1.35 17.52c-.17 7.04.24 14.51-3.24 20.63l-2.46 4.3c-1.96-3.21.83-7.6-2.19-7.56"/><path fill="#AE6E4D" d="M1185.71 276.59c-1.6 2.2-4.3 3.25-6.66 5.13-1.04.83-1.73 2.07-3.28 1.73l8.7-8.75 2.2-2.31c.97-1.02 2.59-1.98 2.6-3.69 3.79-2.3 5.25-7.14 8.22-10.34 0 .57.4 1.57-.19 2.39Zm0 0"/><path fill="#DF9E68" d="m1164.93 300.32-6.67 10.71c1.27-8.48 5.49-15.67 11.33-21.46l-4.8 7.16c-.88 1.21-.58 2.52.14 3.59"/><path fill="#FED7B3" d="M908.38 244.9c.05.56.08 1 .27 1.19 1.28 1.34 21.76-.8 31.66.71-4.97 6.16-1.7 14.81 5.8 20.16 7.31 5.2 15.42 9.53 24.08 11.85 14.3 3.83 29.3-11.4 30.3-27.11 8.04 8.69 9.55 18.43 3.19 27.8-3.65 5.4-9.02 8.94-15.72 8.68l-16.55-.63a28 28 0 0 0-10.58 1.6c-18.77 6.36-39.14 7.44-58.14.88-14.62-5.05-27.02-14.46-37.48-25.8 1.96-1.84 3.67-1.12 5.79-1.1-4.3-5.12-17.22-3.59-23.73.76 2.3.67 4.43.86 5.64 2.62 5.92 8.55 13.53 14.7 22.08 20.58 11.9 8.2 24.6 14.9 39.06 17a97 97 0 0 0 46.8-4.56c9.03-3.14 16.65-2.99 26.55-.74-6.36 18.97-24.42 28.46-43.42 31.35-25.48 3.87-47.83.9-72.82-4.3-1.74-.36-3.05-.83-4.54-.12-.09-2.92 3.44 0 11.32-1.55 3.66-.72 11.5 4.32 14.92-2.48-8.75 1.01-16.75 1.14-25.13-.33-15.5-2.73-30.54-5.4-45.65-10.08-14.46-4.5-27.54-11.65-40.03-19.9l-6.72-6.45c-.92.4-2.26.83-2.85.25-3.62-3.6-1.3-12.81.39-19.28 4.05-15.5 14.8-29.04 30.63-31.47 3.06 8.5 10.75 14.04 19.91 15.5 12.52 2.53 24.82 2.5 37.65 2.12 12.52-.37 24.5-1.14 36.7-3.78 3.75-.82 7.62-1.48 10.62-3.38"/><path fill="#DF9E68" d="m807.73 327.3-.52.6.36.44.56-.56a1.3 1.3 0 0 0-.4-.47m-.26-.29c-.45-.74-1.26.03-.6.54Zm-3.97-92.6c-15.83 2.44-26.58 15.98-30.63 31.48-1.69 6.47-4.01 15.68-.39 19.28.59.58 1.93.14 2.84-.25l6.73 6.44c12.49 8.26 25.58 15.42 40.03 19.9 15.1 4.7 30.16 7.36 45.65 10.09 8.38 1.47 16.38 1.35 25.13.33-3.41 6.8-11.26 1.76-14.92 2.48-7.88 1.55-11.4-1.37-11.32 1.55l2.9 1.51c-.09.32-.14.9-.08 1.29.04.28.53.64 1.02.38.35-.19.56-.6.52-1.01l4.78 2.32c-.3.53-.06 1.34.38 1.42.75.15 1.34.03 1.92-.08.14-.03.35.02.5.05-.32.56-.05 1.38.38 1.44.73.1 1.46-.05 2.05-.22l.38.13c-.15.47.13.83.56.94l.61-.08c.21 1.31 1.4 1.81 2.75 2.24l18.82 5.97c2.8.9 5.28 2.71 8.7 1.5l3.42.59c5.01-.36 9.47.93 13.8 2.93.94 4.89-2.04 9.3.46 11.2l.1 16.75-17.23 9.55c-4.06 2.27-8.5 2.08-12.78.46a244 244 0 0 1-35.01-16.56c-11.03-6.31-22.12-11.73-31.9-19.78l-25.13-20.7-.76.82c11.03 12.55 19.6 26.84 24.13 43.2l6.52 23.53 3.43 10.35.08.41c.74.43-.03 1.46-.61.62l-.22-.33-6.41-13.58c.57 6.86 4.25 12.32 5.62 18.78l5.94 29.72c-15.32-5.72-29.67-13.94-43.24-22.9-.85-8.2-.62-15.94-1.14-24.12-.88-13.76-4.26-26.89-9.32-39.63l-9.74-24.52-8.35-16.79a180 180 0 0 1-12.54-25.2c-3.28-8.33-4.95-16.52-3.63-26.05-2.94 1.03-2.9 3.86-5.96 5.62-1.22-15 1.13-27.98 8.95-40.94-2.72.66-4.7 2.19-6.77 3.8l-13.5 10.52c-.82-6 .94-11.46-.2-15.07l1.94-5.45 6.67-13.31c.62-1.24 1.62-2.15 1.18-3.5l46.08-7.17c.3 13.37 2.55 25.78 6.81 37.66m150.02-50.58c1.73-4.62.53-8.52.43-12.77-1.2 4.23-1.77 8.36-.43 12.77m-30.73-63.68.5-.48c-.5-.76-1.24.02-.5.48m-.13-1.58c.31-1.09-1.07-2.15-1.2-3.28-.26-2.16-1.96-3.77-1.13-6.8 20.94 6.42 35.88 13.81 51.66 28.42 2.24 2.07 4.8 3.51 6.52 6.23a8 8 0 0 0-1.58 2.98c-5.14 4.34-9.11 9.83-12.05 16.35l-6.5 14.42-3.56 8.56a83 83 0 0 0-30.4 3.03c-.56-6.37-1.92-13.34-7.24-16.96-6.85-4.68-15.91-4.21-23.63-5.61-14.32-14.04-31.9-26.81-52.5-23.76-14.6 2.17-26.45 11.98-32.3 24.73l10.44-3.84c-.49 1.92.42 3.25 1.67 4.5l-8.9 1.94c-7.39 1.6-12.85 6.82-16.66 12.4-12.92 2.28-25.54 3.9-38.07 7.14a22.4 22.4 0 0 0-8.98-4.97c5.04-4.07 10.12-7.48 14.75-12.2l-5.46-5.56c2.96-1.35 5.66-.37 7.93-2.04.7-.51 2.1-.46 2.76-1.68.9.6 2.06 1.07 3.75 1.67-3.01-26.25-17.98-46.1-44.19-47.78-5.19-2.84-11.7-.72-16.74 2.29-.6.48-1.12.52-1.63.52 1.67-2.7 4.44-6.21 7.9-7.28 13.14-4.05 26.89-4.25 39.6.53l12.26 5.8c4.62 2.18 9.36 3.73 13.68 6.7 4.81 3.3 9.23 7.36 14.5 8.9.86-1.18.25-2.04.1-2.61.79-.74.74-1.78.3-2.98l-3.72-10.03c8.09-.75 15-3 22.16-5.98l26.17-10.94c6.95-2.9 13.77-5.43 21.85-5.19l-6.93 11.86c11.62-.37 22.98-.3 34.56 2.22a187 187 0 0 1 30.21 9.28l.47-.52Zm0 0"/><path fill="#FED7B3" d="m841.94 406.28-.61.61c.58.84 1.35-.19.61-.61m88.65-31.3 5.25 31.26 3.93 10.8c1.04 7.03-3.1 14.53-7.7 19.94-16.61 19.49-46.25 17.85-69.63 10.55l-16.18-6.05-5.94-29.72c-1.37-6.46-5.05-11.92-5.62-18.78l6.41 13.58.75-.7-3.43-10.35-6.52-23.53c-4.53-16.36-13.1-30.65-24.12-43.2.29-.21.06-.53-.22-.44l-.36-.45-.35-.33c-.65-.5.16-1.28.6-.54q.1.14.27.29.28.2.4.47c0 .22.2.38.4.18l25.14 20.7c9.78 8.05 20.87 13.46 31.9 19.78A244 244 0 0 0 900.58 385c4.28 1.63 8.72 1.81 12.78-.46Zm0 0"/><path fill="#FDFDFD" d="M902 226.23c1.14-8.22-1.7-15.16-5.84-21.5l-3.05 7.64c2.97 4.8 5.1 10.01 8.9 13.86m-60.2-6.06c4.14 6.56 12.72 9.17 19.76 7.22 12.33-3.4 15.58-14.91 14.13-27.72l5.37 2.9 3.09-8.4c-16.3-10.68-40.41-11.5-54.69 1.86-4.6 4.3-7.56 10.4-6.5 16.7.4 2.3 3.22 4.27 5.35 5.2-1.03-10.56 1.78-12.74 10.98-17.76-.66 7.06-1.4 13.8 2.5 20m58.86 16.49c-4.62 2.04-15.46 4.18-20.83 4.46-16.52.84-32.72 1.99-49.17.14-4.95-.56-10.27-1.49-13.7-5.15-9.37-10.03-11.27-34.14-10.31-48.77.3-4.41 2.92-7.38 7.02-8.53 21.22-5.95 55.23-4.82 78.64-3.67 9.11.44 21.34 1.91 22.1 9.7 1.32 13.4.18 27.03-3.5 39.95-1.62 5.73-4.9 9.5-10.25 11.87"/><path fill="#AE6E4D" d="m803.02 418.57-17.18-11.35c.97-16.19 0-32.35-4.4-48.14l-8.71-31.31-11.84-29.31c-3.6-8.9-7.26-17.03-8.85-26.73-5.2 3.8-6.66 11.34-9.13 10.61.1-11.9 2.8-22.58 4.37-34.2l-13.97 8.65c1.32-10.67 4.1-20.95 7.52-30.6 1.13 3.62-.63 9.07.18 15.08l13.5-10.52c2.08-1.61 4.06-3.14 6.78-3.8-7.82 12.96-10.17 25.93-8.95 40.94 3.05-1.76 3.02-4.59 5.96-5.62-1.32 9.53.36 17.72 3.63 26.05 3.5 8.88 7.72 16.98 12.54 25.2l8.35 16.8 9.74 24.51c5.06 12.74 8.44 25.87 9.32 39.63.52 8.18.29 15.92 1.14 24.11m-59.95-260.54c-9.46 6.87-4.54 18.2-8.88 25.17-3.27 5.26 1.82 7 1.75 10.37-7.34 1.3-14.72 3.89-21.44 6.26.63-4.97-9.69-.67-10.44-8.17-.16-1.61 1.52-2.94 2.74-4.38-2.62-11.03-6.39-22.54-5.54-33.75-5.47-1.24-5.65-1.62-7.4-6.05l1.65-7.15c2.72-1.59 5.6-1.64 8.8-1.36l-.52 3.41a19 19 0 0 0-2.04 9.16l3.64-9.08.66-1.35c4.05-.75 7.37-3.32 10.39-6.5 5.92-.78 10.61 2.35 14.63 6.52 4.43 3.86 7.43 8.87 10.86 13.63.8 1.12 1.58 1.89 1.14 3.27"/><path fill="#DF9E68" d="m957.18 201.56 2.4 7.15c1.01 3.02 2 6.01 4.32 8.27l8.37 8.15c.1 1.48 1.17 3.53.16 5.1-.65.56-2.63.9-2.61 2.16-11.37.54-22.3 5.46-29.51 14.41-9.9-1.51-30.38.63-31.66-.71-.19-.2-.22-.63-.27-1.2 9.87-6.23 12.17-15.85 14.14-26.93l1.77-9.92c1.48.44 2.22-.27 3.4-1.07 8.4-5.76 19.27-7.06 28.77-2.5.58-.73.45-1.88.72-2.9"/><path fill="#E7AA83" d="m922.66 118.59-.13.46.75.64c-.49-.76-1.23.02-.49.48-.42-.53-.7-.6-.73-.6a187 187 0 0 0-30.21-9.28c-11.58-2.52-22.94-2.6-34.56-2.22l6.93-11.85c-8.08-.25-14.9 2.28-21.85 5.18l-26.17 10.94c-7.15 2.99-14.07 5.23-22.16 5.98l3.72 10.03c.44 1.2.49 2.24-.3 2.98l-5.16-14.2c15.33-7.96 30.4-14.96 46.63-20.55 13.9-4.78 27.42-8.98 41.77-10.61l-12.84 14.51c15.04-3.68 30.1-6.49 46.22-4.96-5.58 3.55-10.72 5.92-15.76 10.03 8.88 3.88 17.25 7.27 24.34 13.04"/><path fill="#FDFDFD" d="M1007.66 213.03c3.63 6.1 6.78 12.61 8.48 19.63-16.45.42-19.67 3.82-34.15-12.3 7.54-9 6.57-18.53 2.66-29.06 7.3-.42 13.87.28 14.46 6.56.58 6.09-1.38 11.4-3.77 16.9 4.1-3.1 4.2-7.87 6.4-11.7Zm0 0"/><path fill="#864228" d="M988.94 244.14c-2-4.03-12.2-3.62-19.36-2.07-4.81 1.04-10.08 1.64-13.6 5.92 12.3 5.17 34.45-.83 32.96-3.85m-10.92 24.4c-7.55.55-7.93-9.52-23.77-12.7-1.48-.29-4.37-1.05-4.94-2.57-1.72-4.58 1.6-8.16 5.15-10.42 7.1-4.52 14.64-7.11 23.24-6.1 6.61-.97 11.47 3.14 13.8 9.77-1.1 8.44-6.46 16.28-13.48 22.03"/><path fill="#FDFDFD" d="M1042.18 192.82c-.16 10.55-1.38 21.3-4.8 31.53a9.3 9.3 0 0 1-6.48 6.27l-.2-1.58-19-33.3a12 12 0 0 1 3.63-.93l7.74-.8Zm0 0"/><path fill="#864228" d="M996.48 105.14c3.22 3.66 5.77 8.29 6.55 13.43l1.73 11.4c.08.54.3 1.03.56 1.14.28.12.79.03.99-.06a72 72 0 0 1-1.5 14.98l-8.59-9.61-13.97-13.77c-2.27-2.24-2.9-3.1-2.3-6.5.65-3.68 1.3-7.48 4.99-9.85 3.36-2.15 7.63-2.05 11.54-1.16m-253.41 52.89c.44-1.38-.33-2.15-1.14-3.27-3.43-4.76-6.43-9.77-10.86-13.63-4.02-4.17-8.71-7.3-14.63-6.53-3.02 3.19-6.34 5.76-10.39 6.51 3.02-4.66 7.26-9.17 12.67-11.74 9.82-4.66 20.94-1.27 28.05 6.55 3.47 3.82 7.34 6.67 9.9 11.45-1.1.95-2.56.89-3.83.75-4.22-.43-7.37 2.24-7.38 6.36-.01 2.28-1.12 2.63-2.39 3.55"/><path fill="#ABA2B0" d="M1020.88 181.45c-.08 1.58-1.1 2.9-1.79 4.51l-3.76 8.85c-1.03.1-2.12.3-3.64.93l19.01 33.3.2 1.58a59 59 0 0 1-14.76 2.04c-1.7-7.02-4.85-13.53-8.48-19.63 2.16-10.03 3.93-20.35 3.41-30.64Zm0 0"/><path fill="#FED7B3" d="M797.36 133.94c-5.27-1.54-9.69-5.6-14.5-8.9-4.32-2.97-9.06-4.52-13.68-6.7l-12.26-5.8c-12.71-4.78-26.46-4.58-39.6-.53-3.46 1.07-6.23 4.58-7.9 7.28-1.54 2.5-4.1 3.98-6.4 5.7 5.75-10.49 15.6-18.86 27.73-21.94 16.7-4.23 36.48 6.48 49.99 17.07Zm0 0"/><path fill="#FDFDFD" d="M999.28 187c-14.8-3.71-26.93-2.7-31.66 11.75-1.5-5.75-1.06-10.89-.53-16.18.33-3.26 2.58-5.63 5.71-6.72 8.67-3.02 17.88-3.65 27.28-3.67Zm0 0"/><path fill="#AE6E4D" d="M992.4 91.76c4.24 3.2 7.56 6.9 9.76 12.35 3.46 8.64 4.13 17.84 4.15 26.94-.2.09-.7.18-1 .06-.25-.1-.47-.6-.55-1.15l-1.73-11.4c-.78-5.13-3.33-9.76-6.55-13.42l-5.14-5.83c-9.15-6.62-17.04 4.48-21.73 14.53l-7.3-4.13c-.32-1.82.36-3.32 1.29-5.04 3.36-6.28 8.26-11.82 15-13.7 7.65-2.14 11.94 6.1 13.8.8"/><path fill="#FED7B3" d="M976.93 146.14a8 8 0 0 1 1.58-2.98c-1.71-2.72-4.28-4.16-6.52-6.23-15.78-14.6-30.72-22-51.66-28.42-.83 3.03.87 4.64 1.13 6.8-3.05-2.22-3.76-6.76-8.36-9.2 7.08-.8 12.88 1 19.33 2.79 21.05 5.81 39.56 17.26 54.57 33.66-3.96.6-7.04 1.9-10.07 3.58"/><path fill="#864228" d="M714.5 199.83c-1.53.53-4.12 2.78-5.9.74-12.73-14.59-18.96-34.66-14.73-53.09 1.74 4.43 1.92 4.8 7.4 6.05-.86 11.2 2.91 22.72 5.53 33.75-1.22 1.44-2.9 2.77-2.74 4.38.75 7.5 11.07 3.2 10.44 8.17"/><path fill="#AE6E4D" d="M750.6 203.94c.45 1.35-.56 2.26-1.18 3.5l-6.66 13.31c-7.13-1.64-21.35-7.66-20.03-10.85.22-.52 1.22-.94 2.05-1.28 8.7-2.03 17.29-3.35 25.83-4.68"/><path fill="#FED7B3" d="M980.16 86.82c.18.67-.34 1-1 1.3-1.14.52-.95 1.9-.56 2.84-6.74 1.89-11.64 7.43-15 13.7-.93 1.73-1.61 3.23-1.3 5.05l-11.39-5.53c7.78-10.47 16.94-16.92 29.25-17.36"/><path fill="#ABA2B0" d="M1040.77 179.4c1.8 4.18 1.48 8.89 1.41 13.42l-19.11 1.2c.56-4.38 2.8-8.6 2.9-13.15Zm0 0"/><path fill="#FDFDFD" d="m1040.77 179.4-14.8 1.47-5.1.58-9.8.94-.54-10.55c10.13.12 27.22.56 30.24 7.57"/><path fill="#AE6E4D" d="M852.33 160.3c-.44.13-1.02.27-1.2.9 1.64.45 2.76.43 4.1 1.7-3.91 1.37-7.28-.7-6.75 2.02-.58 0-1.55.01-2.07.21-.16-1.17-1.25-1.3-2.45-1.1-.66.12-1.32.36-1.11 1.43l-21.98 2.1c-1.26-1.25-2.17-2.58-1.68-4.5 8.8-3.24 18.27-5.24 27.96-4.1Zm104.85 41.26c-.27 1.03-.14 2.18-.72 2.9-9.5-4.55-20.36-3.25-28.77 2.5-1.18.81-1.92 1.52-3.4 1.08 2.25-12.6 16.18-12.36 29.62-11.95 1.91 1.25 2.7 3.74 3.27 5.47M727.8 116.48c-7.6 2.17-15.96 8.15-19.24 14.4l-3.27-2.36c-1.23-.86-2.03-1.77-3.51-1.26l1.24-2.28c2.3-1.71 4.86-3.2 6.4-5.69.51 0 1.04-.04 1.63-.52 5.04-3 11.55-5.13 16.74-2.3"/><path fill="#FED7B3" d="M930.49 358.24c-2.5-1.9.48-6.31-.45-11.2-4.34-2-8.8-3.3-13.8-2.93l-3.44-.59c-3.41 1.21-5.89-.6-8.7-1.5l-18.81-5.97c-1.35-.43-2.54-.93-2.75-2.24 2.69-.36 18.44 7.07 31.64 8.18l17.63 1.47Zm0 0"/><path fill="#32313F" d="M854.36 207.68c1.34-2.52.83-5.15-1.3-6.6a5.25 5.25 0 0 0-6.36.35c-1.83 1.52-2.76 3.84-2 5.92a5.4 5.4 0 0 0 4.82 3.51c2.05.05 3.78-1.17 4.84-3.18m-12.55 12.5c-3.92-6.21-3.17-12.95-2.5-20.01-9.2 5.02-12.02 7.2-10.99 17.77-2.14-.95-4.96-2.9-5.34-5.2-1.07-6.31 1.9-12.4 6.5-16.7 14.27-13.37 38.38-12.55 54.68-1.87l-3.09 8.4-5.37-2.9c1.45 12.81-1.8 24.32-14.13 27.72-7.04 1.95-15.61-.66-19.76-7.22m60.19 6.06c-3.78-3.85-5.92-9.06-8.89-13.86l3.05-7.64c4.14 6.34 6.98 13.28 5.84 21.5"/><path fill="#AE6E4D" d="M988.94 244.14c1.5 3.02-20.67 9.02-32.96 3.85 3.52-4.28 8.79-4.88 13.6-5.92 7.17-1.55 17.37-1.96 19.36 2.07"/></svg>